<svg width="25" height="25" viewBox="0 0 25 25" fill="none" xmlns="http://www.w3.org/2000/svg">
<path d="M5.46875 11.7188H21.0938C21.301 11.7188 21.4997 11.8241 21.6462 12.0116C21.7927 12.1992 21.875 12.4535 21.875 12.7188C21.875 12.984 21.7927 13.2383 21.6462 13.4259C21.4997 13.6134 21.301 13.7188 21.0938 13.7188H5.46875C5.26155 13.7188 5.06284 13.6134 4.91632 13.4259C4.76981 13.2383 4.6875 12.984 4.6875 12.7188C4.6875 12.4535 4.76981 12.1992 4.91632 12.0116C5.06284 11.8241 5.26155 11.7188 5.46875 11.7188Z" fill="#212121"/>
<path d="M5.79163 12.5L12.2713 18.9781C12.418 19.1248 12.5004 19.3238 12.5004 19.5313C12.5004 19.7387 12.418 19.9377 12.2713 20.0844C12.1246 20.2311 11.9257 20.3135 11.7182 20.3135C11.5107 20.3135 11.3118 20.2311 11.1651 20.0844L4.13382 13.0531C4.06106 12.9806 4.00334 12.8944 3.96396 12.7994C3.92457 12.7045 3.9043 12.6028 3.9043 12.5C3.9043 12.3972 3.92457 12.2955 3.96396 12.2006C4.00334 12.1057 4.06106 12.0195 4.13382 11.9469L11.1651 4.91564C11.3118 4.76894 11.5107 4.68652 11.7182 4.68652C11.9257 4.68652 12.1246 4.76894 12.2713 4.91564C12.418 5.06233 12.5004 5.2613 12.5004 5.46876C12.5004 5.67622 12.418 5.87519 12.2713 6.02189L5.79163 12.5Z" fill="#212121"/>
</svg>
